HIERARCHY
ROOT Hips
{
	OFFSET -3.958830 18.904000 13.208200
	CHANNELS 6 Xposition Yposition Zposition Zrotation Yrotation Xrotation 
	JOINT LHipJoint
	{
		OFFSET 0.000000 0.000000 0.000000
		CHANNELS 3 Zrotation Yrotation Xrotation
		JOINT LeftUpLeg
		{
			OFFSET 1.800000 -1.400000 0.085000
			CHANNELS 3 Zrotation Yrotation Xrotation
			JOINT LeftLeg
			{
				OFFSET 2.215000 -6.000000 0.000000
				CHANNELS 3 Zrotation Yrotation Xrotation
				JOINT LeftFoot
				{
					OFFSET 2.500000 -6.900000 0.000000
					CHANNELS 3 Zrotation Yrotation Xrotation
					JOINT LeftToeBase
					{
						OFFSET 0.200000 -0.500000 1.950000
						CHANNELS 3 Zrotation Yrotation Xrotation
						End Site
						{
							OFFSET 0.000000 0.000000 0.000000
						}
					}
				}
			}
		}
	}
	JOINT RHipJoint
	{
		OFFSET 0.000000 0.000000 0.000000
		CHANNELS 3 Zrotation Yrotation Xrotation
		JOINT RightUpLeg
		{
			OFFSET -1.800000 -1.400000 0.085000
			CHANNELS 3 Zrotation Yrotation Xrotation
			JOINT RightLeg
			{
				OFFSET -2.215000 -6.000000 0.000000
				CHANNELS 3 Zrotation Yrotation Xrotation
				JOINT RightFoot
				{
					OFFSET -2.500000 -6.900000 0.000000
					CHANNELS 3 Zrotation Yrotation Xrotation
					JOINT RightToeBase
					{
						OFFSET -0.200000 -0.500000 1.950000
						CHANNELS 3 Zrotation Yrotation Xrotation
						End Site
						{
							OFFSET 0.000000 0.000000 0.000000
						}
					}
				}
			}
		}
	}
	JOINT LowerBack
	{
		OFFSET 0.000000 0.000000 0.000000
		CHANNELS 3 Zrotation Yrotation Xrotation
		JOINT Spine
		{
			OFFSET -0.087000 1.940000 -0.288900
			CHANNELS 3 Zrotation Yrotation Xrotation
			JOINT Spine1
			{
				OFFSET 0.000000 1.950000 0.060000
				CHANNELS 3 Zrotation Yrotation Xrotation
				JOINT Neck
				{
					OFFSET 0.000000 0.000000 0.000000
					CHANNELS 3 Zrotation Yrotation Xrotation
					JOINT Neck1
					{
						OFFSET 0.000000 1.600000 0.340000
						CHANNELS 3 Zrotation Yrotation Xrotation
						JOINT Head
						{
							OFFSET 0.000000 1.667000 -0.240000
							CHANNELS 3 Zrotation Yrotation Xrotation
							End Site
							{
								OFFSET 0.000000 0.000000 0.000000
							}
						}
					}
				}
				JOINT LeftShoulder
				{
					OFFSET 0.000000 0.000000 0.000000
					CHANNELS 3 Zrotation Yrotation Xrotation
					JOINT LeftArm
					{
						OFFSET 2.700000 1.550000 -0.730000
						CHANNELS 3 Zrotation Yrotation Xrotation
						JOINT LeftForeArm
						{
							OFFSET 5.450000 0.000000 0.000000
							CHANNELS 3 Zrotation Yrotation Xrotation
							JOINT LeftHand
							{
								OFFSET 3.450000 0.000000 0.000000
								CHANNELS 3 Zrotation Yrotation Xrotation
								JOINT LeftHandIndex1
								{
									OFFSET 0.750000 0.000000 0.000000
									CHANNELS 3 Zrotation Yrotation Xrotation
									End Site
									{
										OFFSET 0.000000 0.000000 0.000000
									}
								}
							}
						}
					}
				}
				JOINT RightShoulder
				{
					OFFSET 0.000000 0.000000 0.000000
					CHANNELS 3 Zrotation Yrotation Xrotation
					JOINT RightArm
					{
						OFFSET -2.700000 1.550000 -0.730000
						CHANNELS 3 Zrotation Yrotation Xrotation
						JOINT RightForeArm
						{
							OFFSET -5.450000 0.000000 0.000000
							CHANNELS 3 Zrotation Yrotation Xrotation
							JOINT RightHand
							{
								OFFSET -3.450000 0.000000 0.000000
								CHANNELS 3 Zrotation Yrotation Xrotation
								JOINT RightHandIndex1
								{
									OFFSET -0.750000 0.000000 0.000000
									CHANNELS 3 Zrotation Yrotation Xrotation
									End Site
									{
										OFFSET 0.000000 0.000000 0.000000
									}
								}
							}
						}
					}
				}
			}
		}
	}
}
MOTION
Frames: 12
Frame Time: 0.016667
0.570530 17.393720 -1.719340 -7.429072 -5.923023 11.809976 -15.306935 12.822313 3.375368 -1.743892 -1.916839 -12.922846 -5.849969 2.584805 -2.309771 -0.887354 4.142139 3.667980 0.094350 -0.402890 -0.184260 18.222486 -10.704990 2.625986 -3.746001 -0.069767 -4.520935 6.751899 -5.542301 8.252923 -0.571652 -4.412163 2.873606 -0.036140 1.233980 1.054810 -3.234213 -1.623031 -7.311974 6.305668 2.175953 5.725247 2.605426 1.274996 4.794355 1.595769 -0.165533 -9.757814 -0.702738 2.535488 25.280099 -5.628210 2.083680 -7.339950 -13.988376 -9.838743 3.291654 -8.500284 -4.232412 -0.321800 13.823085 -24.607433 -3.037082 -4.479773 2.825768 0.674880 0.773740 -0.008140 0.587810 11.514708 10.743523 6.425503 13.689412 4.659443 -4.513844 -16.428401 25.945582 -2.597612 1.645330 -1.413703 -0.404960 0.424950 0.342940 0.078630 
0.577560 17.397080 -1.719690 -7.737017 -6.148861 11.891538 -15.294036 12.825617 3.391672 -1.489051 -1.910211 -12.894876 -5.936196 2.567728 -2.574513 -0.873441 4.143776 3.662625 0.091280 -0.410890 -0.179770 18.226960 -10.729866 2.624867 -3.971999 -0.192770 -3.652237 6.698701 -5.664361 8.523508 -0.600329 -4.492554 2.850208 -0.050950 1.216640 1.053510 -3.254784 -1.609729 -7.346669 6.826315 2.202648 5.806430 2.412912 1.368655 4.587385 1.700076 -0.242561 -9.855571 -0.901272 2.533708 25.896804 -5.667580 2.123750 -7.474450 -14.201480 -9.903820 3.325214 -8.393868 -3.962502 -0.377080 13.811487 -24.695163 -3.027449 -4.461046 2.822438 0.690560 0.756840 0.005670 0.583060 11.494504 10.884028 6.548002 13.691241 4.495950 -4.554470 -16.345109 25.906464 -2.533995 1.655527 -1.399380 -0.399740 0.417940 0.341320 0.074950 
0.585040 17.400800 -1.719400 -8.053926 -6.341773 11.968521 -15.279985 12.831300 3.407491 -1.230509 -1.902009 -12.875172 -6.009652 2.552351 -2.811231 -0.859227 4.143611 3.657335 0.088100 -0.418510 -0.175770 18.231891 -10.753675 2.626457 -4.196270 -0.314705 -2.781392 6.658137 -5.789272 8.790007 -0.629908 -4.573419 2.826142 -0.066070 1.198840 1.052190 -3.278034 -1.600790 -7.384001 7.388543 2.217878 5.887875 2.199072 1.458132 4.351115 1.810102 -0.322949 -9.955268 -1.115658 2.532820 26.570826 -5.689060 2.149910 -7.612140 -14.430894 -9.960070 3.352517 -8.299332 -3.690107 -0.432382 13.780028 -24.813977 -3.015483 -4.441396 2.819321 0.706440 0.739070 0.020220 0.578180 11.474608 11.016966 6.672137 13.690888 4.317401 -4.591555 -16.252286 25.863099 -2.464628 1.666598 -1.384313 -0.393870 0.410880 0.339880 0.071850 
0.592720 17.405380 -1.718770 -8.370976 -6.505968 12.029474 -15.265452 12.841761 3.425247 -0.966824 -1.890723 -12.849240 -6.078387 2.538294 -3.038926 -0.842966 4.141942 3.651885 0.086270 -0.425390 -0.169880 18.235954 -10.775832 2.630657 -4.417326 -0.434000 -1.916294 6.624426 -5.916570 9.064780 -0.661228 -4.651325 2.802772 -0.082480 1.178160 1.050900 -3.300862 -1.601580 -7.427982 7.978136 2.220262 5.993224 1.957876 1.547101 4.069486 1.931435 -0.406065 -10.073305 -1.354183 2.524936 27.361625 -5.693840 2.160720 -7.779040 -14.687512 -10.028495 3.382966 -8.190084 -3.395028 -0.488742 13.709157 -24.943899 -2.994210 -4.418575 2.816089 0.724340 0.718420 0.037290 0.573160 11.454936 11.167775 6.813395 13.702789 4.105994 -4.631519 -16.136428 25.828472 -2.385259 1.679094 -1.367621 -0.386360 0.402970 0.337190 0.068560 
0.600280 17.410430 -1.717630 -8.673034 -6.643082 12.093695 -15.251875 12.854168 3.443731 -0.710693 -1.879408 -12.829074 -6.150318 2.525883 -3.255962 -0.829121 4.140714 3.645714 0.085550 -0.431300 -0.162610 18.238889 -10.794696 2.635616 -4.643863 -0.546527 -1.079706 6.606646 -6.043942 9.331882 -0.691935 -4.726856 2.780374 -0.097600 1.156250 1.048380 -3.321155 -1.610307 -7.473011 8.548675 2.220271 6.086498 1.727879 1.632711 3.757568 2.058016 -0.482696 -10.185015 -1.591791 2.512367 28.193362 -5.721380 2.170580 -7.966890 -14.969406 -10.078579 3.400649 -8.080127 -3.113496 -0.533533 13.623168 -25.026445 -2.966085 -4.396179 2.811251 0.743310 0.697350 0.054090 0.567490 11.449991 11.299357 6.946266 13.700494 3.877086 -4.670176 -16.008788 25.826103 -2.304109 1.689965 -1.350383 -0.379850 0.395810 0.334440 0.063750 
0.607770 17.415460 -1.715960 -8.962956 -6.756094 12.169438 -15.237771 12.866468 3.462102 -0.468817 -1.870144 -12.823408 -6.219462 2.513113 -3.459261 -0.815047 4.137048 3.640175 0.086820 -0.434100 -0.154660 18.242466 -10.810929 2.641967 -4.870212 -0.653007 -0.280894 6.613351 -6.168890 9.576689 -0.722788 -4.799689 2.757619 -0.110740 1.133700 1.045810 -3.343742 -1.622189 -7.517866 9.124076 2.211601 6.159693 1.482341 1.713913 3.421019 2.180414 -0.563736 -10.289501 -1.842470 2.505193 29.034397 -5.725860 2.165330 -8.159960 -15.254393 -10.101933 3.407826 -7.968559 -2.838554 -0.569443 13.536579 -25.073824 -2.932997 -4.373068 2.807653 0.761440 0.675720 0.071650 0.562810 11.453018 11.408237 7.068075 13.700724 3.638743 -4.706096 -15.878343 25.865406 -2.226409 1.701193 -1.334854 -0.372560 0.388450 0.329990 0.059850 
0.614660 17.420800 -1.714040 -9.233261 -6.857811 12.250185 -15.224670 12.880139 3.480397 -0.249087 -1.863746 -12.829385 -6.270692 2.499155 -3.645132 -0.801018 4.130972 3.635238 0.089710 -0.435490 -0.145550 18.245050 -10.824041 2.649908 -5.092955 -0.752069 0.477141 6.635592 -6.288347 9.787987 -0.753179 -4.867807 2.736014 -0.123290 1.110700 1.043800 -3.363763 -1.639927 -7.563139 9.661077 2.205036 6.220006 1.253635 1.794769 3.069216 2.298608 -0.645733 -10.401494 -2.102322 2.506833 29.905625 -5.717040 2.153700 -8.348510 -15.504247 -10.107054 3.416243 -7.900939 -2.572337 -0.596070 13.433469 -25.086049 -2.894588 -4.350018 2.804887 0.779090 0.653840 0.089550 0.558660 11.431412 11.507427 7.188995 13.731538 3.402141 -4.738630 -15.757865 25.906655 -2.151705 1.712505 -1.320241 -0.364280 0.380650 0.324720 0.056140 
0.620790 17.425890 -1.712270 -9.470655 -6.965831 12.340998 -15.212675 12.891837 3.498585 -0.056717 -1.860034 -12.843818 -6.329763 2.485240 -3.824228 -0.786941 4.124664 3.630884 0.093490 -0.434720 -0.136640 18.247256 -10.834695 2.657874 -5.316293 -0.841142 1.181345 6.658212 -6.396250 9.958931 -0.782004 -4.930739 2.715622 -0.133780 1.089110 1.042150 -3.381898 -1.657356 -7.605836 10.138509 2.206993 6.254495 1.037735 1.878937 2.714484 2.408720 -0.721999 -10.505143 -2.350880 2.521915 30.759721 -5.693360 2.142070 -8.519460 -15.725259 -10.082075 3.416833 -7.853842 -2.320858 -0.613517 13.336814 -25.069392 -2.854288 -4.328398 2.802081 0.794940 0.633360 0.107180 0.555570 11.399720 11.579741 7.294996 13.775127 3.196722 -4.754453 -15.609632 25.936497 -2.074098 1.724146 -1.306834 -0.355960 0.373460 0.318430 0.053580 
0.625890 17.430110 -1.710880 -9.673166 -7.067991 12.445758 -15.202024 12.899171 3.515124 0.113516 -1.860467 -12.878848 -6.406962 2.473539 -3.988111 -0.776832 4.119329 3.626534 0.097410 -0.433040 -0.128520 18.249682 -10.843189 2.664651 -5.530089 -0.919945 1.823541 6.677772 -6.492241 10.096188 -0.807187 -4.989004 2.697696 -0.141410 1.069680 1.038560 -3.398883 -1.670372 -7.641723 10.543482 2.218932 6.245590 0.847586 1.959330 2.398545 2.503716 -0.791263 -10.595213 -2.577286 2.536329 31.528836 -5.677060 2.125800 -8.673440 -15.882435 -10.033452 3.411471 -7.838564 -2.117239 -0.617875 13.252962 -24.995584 -2.814213 -4.309801 2.797578 0.809140 0.615350 0.121540 0.552530 11.338481 11.623510 7.383637 13.847646 3.029548 -4.762914 -15.487350 25.958824 -2.009389 1.733246 -1.294794 -0.350150 0.368340 0.312840 0.050330 
0.629480 17.433540 -1.710090 -9.823943 -7.182968 12.554820 -15.194414 12.902595 3.530560 0.245699 -1.864002 -12.915640 -6.491427 2.461818 -4.145641 -0.768425 4.114115 3.622303 0.101180 -0.430580 -0.120890 18.250599 -10.849600 2.670271 -5.743189 -0.987027 2.410334 6.675945 -6.570011 10.182363 -0.829875 -5.040549 2.681364 -0.147310 1.051390 1.034480 -3.409386 -1.679433 -7.672154 10.824054 2.258189 6.202399 0.705432 2.047938 2.120485 2.585379 -0.837364 -10.675158 -2.756606 2.541181 32.243500 -5.665510 2.110620 -8.824460 -15.991148 -9.978421 3.402997 -7.829112 -1.955173 -0.615657 13.158916 -24.913965 -2.772382 -4.293182 2.792697 0.821930 0.598820 0.134470 0.549140 11.265040 11.647203 7.460409 13.931032 2.889837 -4.761758 -15.365664 25.963852 -1.948743 1.741474 -1.283685 -0.345250 0.364050 0.307840 0.046920 
0.631390 17.436400 -1.709980 -9.919032 -7.307852 12.669381 -15.190145 12.901070 3.544953 0.340785 -1.871645 -12.957961 -6.593432 2.450115 -4.301138 -0.759888 4.110435 3.618316 0.104400 -0.427980 -0.114500 18.249839 -10.853797 2.674498 -5.962574 -1.041062 2.937983 6.670606 -6.633756 10.215036 -0.850271 -5.086993 2.666226 -0.152340 1.036010 1.031750 -3.412764 -1.683445 -7.696962 10.967491 2.319205 6.126307 0.614185 2.137468 1.879384 2.649345 -0.857377 -10.739559 -2.878174 2.543256 32.880630 -5.658560 2.106040 -8.941260 -16.074423 -9.921237 3.394819 -7.800381 -1.809435 -0.607986 13.065590 -24.817225 -2.729785 -4.279590 2.789198 0.832090 0.584980 0.146160 0.546710 11.212167 11.649568 7.517927 14.018473 2.779786 -4.757849 -15.270109 25.966731 -1.899666 1.749163 -1.274491 -0.340370 0.360140 0.303330 0.044760 
0.631410 17.438560 -1.710800 -9.943441 -7.444353 12.782047 -15.190635 12.896386 3.557974 0.373607 -1.885686 -13.002036 -6.681898 2.436571 -4.440940 -0.752645 4.105950 3.615976 0.107220 -0.426520 -0.108490 18.245684 -10.857155 2.676653 -6.195170 -1.077701 3.398961 6.655318 -6.683965 10.212444 -0.867156 -5.128524 2.653232 -0.156910 1.023470 1.030070 -3.404239 -1.682872 -7.716049 10.932261 2.409456 6.024687 0.601564 2.230022 1.687207 2.696121 -0.847862 -10.802838 -2.933967 2.527224 33.428995 -5.663120 2.103110 -8.994020 -16.115594 -9.881040 3.398212 -7.777563 -1.688066 -0.595590 12.985665 -24.667241 -2.688756 -4.269507 2.786054 0.840100 0.574370 0.155320 0.544730 11.168211 11.651145 7.572359 14.108222 2.666453 -4.755766 -15.188940 25.980528 -1.861169 1.755143 -1.267845 -0.336180 0.356020 0.299120 0.042610 
